<?xml version="1.0" standalone="no"?>
<!DOCTYPE svg PUBLIC "-//W3C//DTD SVG 20010904//EN"
 "http://www.w3.org/TR/2001/REC-SVG-20010904/DTD/svg10.dtd">
<svg version="1.0" xmlns="http://www.w3.org/2000/svg"
 width="512.000000pt" height="512.000000pt" viewBox="0 0 512.000000 512.000000"
 preserveAspectRatio="xMidYMid meet">
<metadata>
Created by potrace 1.14, written by Peter Selinger 2001-2017
</metadata>
<g transform="translate(0.000000,512.000000) scale(0.100000,-0.100000)"
fill="#000000" stroke="none">
<path d="M2710 4193 c-111 -9 -245 -29 -325 -50 -33 -8 -67 -16 -75 -18 -106
-23 -328 -128 -459 -219 -135 -93 -299 -268 -389 -416 -97 -162 -183 -405
-208 -590 -2 -19 -8 -64 -13 -100 -10 -69 -7 -464 4 -540 57 -400 191 -697
420 -925 212 -212 439 -325 765 -382 84 -14 159 -18 375 -18 241 0 321 4 445
21 60 8 114 16 135 20 11 3 36 7 55 10 64 10 314 73 385 97 l70 24 0 804 0
804 -593 0 c-520 0 -592 -2 -593 -15 0 -8 -2 -115 -2 -238 l-2 -222 335 0 335
0 0 -389 c0 -214 -3 -392 -6 -395 -3 -4 -39 -13 -80 -20 -249 -47 -567 -51
-756 -12 -217 46 -406 154 -518 294 -25 31 -50 62 -55 69 -41 50 -118 236
-146 353 -28 115 -32 143 -43 269 -10 127 -1 406 14 432 3 3 7 24 9 45 16 121
88 299 166 414 193 281 486 420 890 423 256 2 461 -43 776 -171 l50 -20 39 91
c21 51 51 119 66 152 60 133 77 171 83 192 6 19 -2 25 -96 61 -196 76 -400
129 -593 153 -83 10 -385 18 -465 12z"/>
</g>
</svg>
